<mxfile host="app.diagrams.net" modified="2021-03-22T22:06:29.780Z" agent="5.0 (Windows NT 10.0; Win64; x64) AppleWebKit/537.36 (KHTML, like Gecko) Chrome/89.0.4389.90 Safari/537.36" etag="t7cehzCoyj8bUSFfAvYn" version="14.4.9" type="github">
  <diagram id="zV1JQLpAThjoI-ff-nk5" name="Page-1">
    <mxGraphModel dx="1422" dy="834" grid="1" gridSize="10" guides="1" tooltips="1" connect="1" arrows="1" fold="1" page="1" pageScale="1" pageWidth="850" pageHeight="1100" math="0" shadow="0">
      <root>
        <mxCell id="0" />
        <mxCell id="1" parent="0" />
        <mxCell id="FBbl8Q00sxEDUlRlCji_-13" value="Projections" style="rounded=0;whiteSpace=wrap;html=1;fillColor=#f5f5f5;strokeColor=#666666;fontColor=#333333;fontSize=10;" vertex="1" parent="1">
          <mxGeometry x="351" y="87" width="180" height="20" as="geometry" />
        </mxCell>
        <mxCell id="FBbl8Q00sxEDUlRlCji_-1" value="Container" style="rounded=1;whiteSpace=wrap;html=1;fillColor=#dae8fc;strokeColor=#6c8ebf;" vertex="1" parent="1">
          <mxGeometry x="340" y="60" width="200" height="30" as="geometry" />
        </mxCell>
        <mxCell id="FBbl8Q00sxEDUlRlCji_-2" value="" style="shape=flexArrow;endArrow=classic;html=1;" edge="1" parent="1">
          <mxGeometry width="50" height="50" relative="1" as="geometry">
            <mxPoint x="340" y="120" as="sourcePoint" />
            <mxPoint x="280" y="160" as="targetPoint" />
          </mxGeometry>
        </mxCell>
        <mxCell id="FBbl8Q00sxEDUlRlCji_-3" value="" style="shape=flexArrow;endArrow=classic;html=1;" edge="1" parent="1">
          <mxGeometry width="50" height="50" relative="1" as="geometry">
            <mxPoint x="439" y="130" as="sourcePoint" />
            <mxPoint x="439.5" y="175" as="targetPoint" />
          </mxGeometry>
        </mxCell>
        <mxCell id="FBbl8Q00sxEDUlRlCji_-4" value="" style="shape=flexArrow;endArrow=classic;html=1;" edge="1" parent="1">
          <mxGeometry width="50" height="50" relative="1" as="geometry">
            <mxPoint x="540" y="120" as="sourcePoint" />
            <mxPoint x="590" y="160" as="targetPoint" />
          </mxGeometry>
        </mxCell>
        <mxCell id="FBbl8Q00sxEDUlRlCji_-7" value="Table" style="outlineConnect=0;fontColor=#232F3E;gradientColor=none;strokeColor=#232F3E;fillColor=#ffffff;dashed=0;verticalLabelPosition=bottom;verticalAlign=top;align=center;html=1;fontSize=12;fontStyle=0;aspect=fixed;shape=mxgraph.aws4.resourceIcon;resIcon=mxgraph.aws4.search_documents;" vertex="1" parent="1">
          <mxGeometry x="250" y="170" width="60" height="60" as="geometry" />
        </mxCell>
        <mxCell id="FBbl8Q00sxEDUlRlCji_-8" value="Collection" style="outlineConnect=0;fontColor=#232F3E;gradientColor=none;strokeColor=#232F3E;fillColor=#ffffff;dashed=0;verticalLabelPosition=bottom;verticalAlign=top;align=center;html=1;fontSize=12;fontStyle=0;aspect=fixed;shape=mxgraph.aws4.resourceIcon;resIcon=mxgraph.aws4.documents;" vertex="1" parent="1">
          <mxGeometry x="410" y="190" width="60" height="60" as="geometry" />
        </mxCell>
        <mxCell id="FBbl8Q00sxEDUlRlCji_-11" value="" style="shape=image;html=1;verticalAlign=top;verticalLabelPosition=bottom;labelBackgroundColor=#ffffff;imageAspect=0;aspect=fixed;image=https://cdn0.iconfinder.com/data/icons/business-collection-2027/60/diagram-1-128.png" vertex="1" parent="1">
          <mxGeometry x="570" y="175" width="50" height="50" as="geometry" />
        </mxCell>
        <mxCell id="FBbl8Q00sxEDUlRlCji_-12" value="Graph" style="text;html=1;strokeColor=none;fillColor=none;align=center;verticalAlign=middle;whiteSpace=wrap;rounded=0;" vertex="1" parent="1">
          <mxGeometry x="575" y="237" width="40" height="20" as="geometry" />
        </mxCell>
      </root>
    </mxGraphModel>
  </diagram>
</mxfile>
